<?xml version="1.0" encoding="UTF-8"?>
<svg id="Layer_2" data-name="Layer 2" xmlns="http://www.w3.org/2000/svg" viewBox="0 0 100.93 65.85">
  <g id="Layer_1-2" data-name="Layer 1">
    <g>
      <path d="M46.01,57.21c-5.76-5.76-8.64-13.95-8.64-24.56s2.87-18.4,8.6-24.1C51.69,2.85,59.81,0,70.29,0c8.41,0,15.33,1.84,20.76,5.53,5.43,3.69,8.72,8.8,9.88,15.32h-6.95c-1.04-5.24-3.63-9.38-7.77-12.39-4.15-3.02-9.3-4.53-15.46-4.53-8.29,0-14.68,2.48-19.16,7.45-4.48,4.97-6.72,12.06-6.72,21.26s2.25,16.62,6.77,21.68c4.51,5.06,10.94,7.59,19.3,7.59,6.16,0,11.28-1.49,15.37-4.48,4.08-2.99,6.64-7.13,7.68-12.44h6.95c-1.16,6.46-4.45,11.56-9.88,15.27-5.43,3.72-12.29,5.58-20.58,5.58-10.55,0-18.7-2.88-24.47-8.64Z"/>
      <path d="M30.64,1.06c10.49,0,23.35.25,29.36-.19,3.71,7.05,4.41,47.68-5.14,56.41-5.76,5.76-13.85,8.58-24.4,8.58-8.29,0-15.15-1.86-20.58-5.58-5.43-3.72-8.72-8.81-9.88-15.27h6.95c1.04,5.31,3.6,9.45,7.68,12.44,4.09,2.99,9.21,4.48,15.37,4.48,8.35,0,14.79-2.53,19.3-7.59,4.51-5.06,6.77-12.29,6.77-21.68,0-9.27,1.96-24.62-10.49-26.79-1.1-.19-14.87-1.67-14.87-.87,0,0-.07-3.93-.07-3.93Z"/>
    </g>
  </g>
</svg>