<?xml version="1.0" encoding="UTF-8"?>
<svg id="Layer_2" data-name="Layer 2" xmlns="http://www.w3.org/2000/svg" viewBox="0 0 179.19 91.02">
  <g id="Layer_1-2" data-name="Layer 1">
    <g>
      <g>
        <path d="M9.92,85.49c0,3.47-1.97,5.53-5.25,5.53-3.47,0-5.16-2.09-4.55-5.35l1.74-.35c-.35,2.65.4,3.94,2.74,3.94,2.65,0,3.45-1.48,3.45-4.24v-9.71h1.87v10.17Z"/>
        <path d="M27.05,89.03v1.76h-11.21v-15.47h10.85v1.76h-8.98v4.99h6.99v1.76h-6.99v5.2h9.33Z"/>
        <path d="M41.39,86.5h-7.01l-1.64,4.29h-1.97l6.03-15.47h2.23l6,15.47h-1.99l-1.64-4.29ZM40.71,84.74l-2.09-5.49-.73-2.16h-.05l-.68,2.09-2.11,5.56h5.65Z"/>
        <path d="M61.52,90.79h-2.32l-6.47-10.36-1.64-3.05h-.02l.09,2.48v10.92h-1.78v-15.47h2.32l6.45,10.32,1.66,3.09h.02l-.09-2.48v-10.92h1.78v15.47Z"/>
        <path d="M83.63,91.02c-4.41,0-7.17-3.07-7.17-7.97s2.81-7.97,7.13-7.97c3,0,5.02,1.27,6,3.61l-1.85.87c-.68-1.78-1.95-2.72-4.01-2.72-3.16,0-5.3,2.3-5.3,6.21s1.99,6.21,5.2,6.21c2.06,0,3.68-1.05,4.36-3.14l1.88.7c-.98,2.65-3.33,4.2-6.24,4.2Z"/>
        <path d="M103.44,86.5h-7.01l-1.64,4.29h-1.97l6.02-15.47h2.23l6,15.47h-1.99l-1.64-4.29ZM102.76,84.74l-2.09-5.49-.73-2.16h-.05l-.68,2.09-2.11,5.56h5.65Z"/>
        <path d="M117.01,84.36h-3.7v6.42h-1.87v-15.47h5.86c3.14,0,5.23,1.73,5.23,4.52,0,2.2-1.31,3.75-3.42,4.31l4.36,6.63h-2.23l-4.22-6.42ZM113.3,82.61h3.96c2.2,0,3.28-.91,3.28-2.77s-1.08-2.77-3.28-2.77h-3.96v5.53Z"/>
        <path d="M139.01,77.07h-5.39v13.71h-1.88v-13.71h-5.39v-1.76h12.66v1.76Z"/>
        <path d="M145.31,90.79h-1.87v-15.47h1.87v15.47Z"/>
        <path d="M162.52,89.03v1.76h-11.21v-15.47h10.85v1.76h-8.98v4.99h6.99v1.76h-6.99v5.2h9.33Z"/>
        <path d="M172.75,84.36h-3.7v6.42h-1.87v-15.47h5.86c3.14,0,5.23,1.73,5.23,4.52,0,2.2-1.31,3.75-3.42,4.31l4.36,6.63h-2.23l-4.22-6.42ZM169.04,82.61h3.96c2.2,0,3.28-.91,3.28-2.77s-1.08-2.77-3.28-2.77h-3.96v5.53Z"/>
      </g>
      <g>
        <path d="M45.01,57.21c-5.76-5.76-8.64-13.95-8.64-24.56s2.87-18.4,8.6-24.1C50.69,2.85,58.81,0,69.29,0c8.41,0,15.33,1.84,20.76,5.53,5.43,3.69,8.72,8.8,9.88,15.32h-6.95c-1.04-5.24-3.63-9.38-7.77-12.39-4.15-3.02-9.3-4.53-15.46-4.53-8.29,0-14.68,2.48-19.16,7.45-4.48,4.97-6.72,12.06-6.72,21.26s2.25,16.62,6.77,21.68c4.51,5.06,10.94,7.59,19.3,7.59,6.16,0,11.28-1.49,15.37-4.48,4.08-2.99,6.64-7.13,7.68-12.44h6.95c-1.16,6.46-4.45,11.56-9.88,15.27-5.43,3.72-12.29,5.58-20.58,5.58-10.55,0-18.7-2.88-24.47-8.64Z"/>
        <path d="M30.64,1.06c10.49,0,23.35.25,29.36-.19,3.71,7.05.68,50.58-5.08,56.34-5.76,5.76-13.92,8.64-24.47,8.64-8.29,0-15.15-1.86-20.58-5.58-5.43-3.72-8.72-8.81-9.88-15.27h6.95c1.04,5.31,3.6,9.45,7.68,12.44,4.09,2.99,9.21,4.48,15.37,4.48,8.35,0,14.79-2.53,19.3-7.59,4.51-5.06,6.77-12.29,6.77-21.68,0-9.27,1.96-24.62-10.49-26.79-1.1-.19-14.87-1.67-14.87-.87l-.07-3.93Z"/>
      </g>
    </g>
  </g>
</svg>