<?xml version="1.0" encoding="UTF-8"?>
<svg id="Layer_2" data-name="Layer 2" xmlns="http://www.w3.org/2000/svg" viewBox="0 0 343.47 25.28">
  <defs>
    <style>
      .cls-1 {
        fill: #fff;
      }
    </style>
  </defs>
  <g id="Layer_1-2" data-name="Layer 1">
    <g>
      <g>
        <path class="cls-1" d="M83.57,16.51c0,5.33-3.02,8.49-8.06,8.49-5.33,0-7.92-3.2-6.98-8.21l2.66-.54c-.54,4.07.61,6.05,4.21,6.05,4.07,0,5.29-2.27,5.29-6.52V.89h2.88v15.62Z"/>
        <path class="cls-1" d="M109.86,21.95v2.7h-17.21V.89h16.67v2.7h-13.79v7.67h10.73v2.7h-10.73v7.99h14.33Z"/>
        <path class="cls-1" d="M131.89,18.06h-10.76l-2.52,6.59h-3.02L124.83.89h3.42l9.21,23.76h-3.06l-2.52-6.59ZM130.84,15.36l-3.2-8.42-1.12-3.31h-.07l-1.04,3.2-3.24,8.53h8.67Z"/>
        <path class="cls-1" d="M162.8,24.65h-3.56l-9.93-15.91-2.52-4.68h-.04l.14,3.82v16.77h-2.74V.89h3.56l9.9,15.84,2.56,4.75h.04l-.14-3.82V.89h2.74v23.76Z"/>
        <path class="cls-1" d="M196.75,25.01c-6.77,0-11.01-4.72-11.01-12.24s4.32-12.24,10.94-12.24c4.61,0,7.7,1.94,9.21,5.54l-2.84,1.33c-1.04-2.74-2.99-4.18-6.16-4.18-4.86,0-8.13,3.53-8.13,9.54s3.06,9.54,7.99,9.54c3.17,0,5.65-1.62,6.69-4.82l2.88,1.08c-1.51,4.07-5.11,6.44-9.57,6.44Z"/>
        <path class="cls-1" d="M227.16,18.06h-10.76l-2.52,6.59h-3.02L220.1.89h3.42l9.21,23.76h-3.06l-2.52-6.59ZM226.11,15.36l-3.2-8.42-1.12-3.31h-.07l-1.04,3.2-3.24,8.53h8.67Z"/>
        <path class="cls-1" d="M247.99,14.79h-5.69v9.86h-2.88V.89h9c4.82,0,8.03,2.66,8.03,6.95,0,3.38-2.02,5.76-5.25,6.62l6.69,10.19h-3.42l-6.48-9.86ZM242.3,12.09h6.08c3.38,0,5.04-1.4,5.04-4.25s-1.66-4.25-5.04-4.25h-6.08v8.49Z"/>
        <path class="cls-1" d="M281.78,3.59h-8.28v21.06h-2.88V3.59h-8.28V.89h19.44v2.7Z"/>
        <path class="cls-1" d="M291.45,24.65h-2.88V.89h2.88v23.76Z"/>
        <path class="cls-1" d="M317.87,21.95v2.7h-17.21V.89h16.67v2.7h-13.79v7.67h10.73v2.7h-10.73v7.99h14.33Z"/>
        <path class="cls-1" d="M333.58,14.79h-5.69v9.86h-2.88V.89h9c4.82,0,8.03,2.66,8.03,6.95,0,3.38-2.02,5.76-5.25,6.62l6.69,10.19h-3.42l-6.48-9.86ZM327.89,12.09h6.08c3.38,0,5.04-1.4,5.04-4.25s-1.66-4.25-5.04-4.25h-6.08v8.49Z"/>
      </g>
      <g>
        <path class="cls-1" d="M17.28,21.97c-2.21-2.21-3.32-5.36-3.32-9.43s1.1-7.06,3.3-9.25c2.2-2.19,5.31-3.28,9.34-3.28,3.23,0,5.89.71,7.97,2.12,2.08,1.42,3.35,3.38,3.79,5.88h-2.67c-.4-2.01-1.39-3.6-2.98-4.76-1.59-1.16-3.57-1.74-5.94-1.74-3.18,0-5.64.95-7.36,2.86s-2.58,4.63-2.58,8.16.87,6.38,2.6,8.32c1.73,1.94,4.2,2.92,7.41,2.92,2.36,0,4.33-.57,5.9-1.72,1.57-1.15,2.55-2.74,2.95-4.78h2.67c-.44,2.48-1.71,4.44-3.79,5.86-2.08,1.43-4.72,2.14-7.9,2.14-4.05,0-7.18-1.11-9.39-3.32Z"/>
        <path class="cls-1" d="M11.76.41c4.03,0,8.97.1,11.27-.07,1.42,2.71,1.37,8.22,1.37,12.2s-1.11,7.22-3.32,9.43-5.34,3.32-9.39,3.32c-3.18,0-5.82-.71-7.9-2.14-2.08-1.43-3.35-3.38-3.79-5.86h2.67c.4,2.04,1.38,3.63,2.95,4.78,1.57,1.15,3.54,1.72,5.9,1.72,3.21,0,5.68-.97,7.41-2.92,1.73-1.94,2.6-4.72,2.6-8.32,0-3.56.75-9.45-4.03-10.29-.42-.07-5.71-.64-5.71-.33l-.03-1.51Z"/>
      </g>
    </g>
  </g>
</svg>