<?xml version="1.0" encoding="UTF-8"?>
<svg id="Layer_2" data-name="Layer 2" xmlns="http://www.w3.org/2000/svg" viewBox="0 0 309.67 57.13">
  <g id="Layer_1-2" data-name="Layer 1">
    <g>
      <g>
        <path d="M140.4,31.09c0,3.47-1.97,5.53-5.25,5.53-3.47,0-5.16-2.09-4.55-5.35l1.74-.35c-.35,2.65.4,3.94,2.74,3.94,2.65,0,3.45-1.48,3.45-4.24v-9.71h1.87v10.17Z"/>
        <path d="M157.52,34.63v1.76h-11.21v-15.47h10.85v1.76h-8.98v4.99h6.99v1.76h-6.99v5.2h9.33Z"/>
        <path d="M171.86,32.1h-7.01l-1.64,4.29h-1.97l6.03-15.47h2.23l6,15.47h-1.99l-1.64-4.29ZM171.18,30.34l-2.09-5.49-.73-2.16h-.05l-.68,2.09-2.11,5.56h5.65Z"/>
        <path d="M192,36.39h-2.32l-6.47-10.36-1.64-3.05h-.02l.09,2.48v10.92h-1.78v-15.47h2.32l6.45,10.32,1.66,3.09h.02l-.09-2.48v-10.92h1.78v15.47Z"/>
        <path d="M214.11,36.63c-4.41,0-7.17-3.07-7.17-7.97s2.81-7.97,7.13-7.97c3,0,5.02,1.27,6,3.61l-1.85.87c-.68-1.78-1.95-2.72-4.01-2.72-3.16,0-5.3,2.3-5.3,6.21s1.99,6.21,5.2,6.21c2.06,0,3.68-1.05,4.36-3.14l1.88.7c-.98,2.65-3.33,4.2-6.24,4.2Z"/>
        <path d="M233.91,32.1h-7.01l-1.64,4.29h-1.97l6.02-15.47h2.23l6,15.47h-1.99l-1.64-4.29ZM233.23,30.34l-2.09-5.49-.73-2.16h-.05l-.68,2.09-2.11,5.56h5.65Z"/>
        <path d="M247.48,29.97h-3.7v6.42h-1.87v-15.47h5.86c3.14,0,5.23,1.73,5.23,4.52,0,2.2-1.31,3.75-3.42,4.31l4.36,6.63h-2.23l-4.22-6.42ZM243.78,28.21h3.96c2.2,0,3.28-.91,3.28-2.77s-1.08-2.77-3.28-2.77h-3.96v5.53Z"/>
        <path d="M269.49,22.68h-5.39v13.71h-1.88v-13.71h-5.39v-1.76h12.66v1.76Z"/>
        <path d="M275.79,36.39h-1.87v-15.47h1.87v15.47Z"/>
        <path d="M292.99,34.63v1.76h-11.21v-15.47h10.85v1.76h-8.98v4.99h6.99v1.76h-6.99v5.2h9.33Z"/>
        <path d="M303.22,29.97h-3.7v6.42h-1.87v-15.47h5.86c3.14,0,5.23,1.73,5.23,4.52,0,2.2-1.31,3.75-3.42,4.31l4.36,6.63h-2.23l-4.22-6.42ZM299.52,28.21h3.96c2.2,0,3.28-.91,3.28-2.77s-1.08-2.77-3.28-2.77h-3.96v5.53Z"/>
      </g>
      <g>
        <path d="M38.89,49.59c-4.99-4.99-7.49-12.09-7.49-21.29s2.48-15.95,7.45-20.89C43.82,2.47,50.85,0,59.94,0c7.29,0,13.29,1.6,18,4.8,4.7,3.2,7.56,7.62,8.56,13.28h-6.03c-.9-4.55-3.14-8.13-6.74-10.74-3.59-2.62-8.06-3.92-13.4-3.92-7.19,0-12.72,2.15-16.61,6.46s-5.83,10.45-5.83,18.43,1.95,14.4,5.87,18.79c3.91,4.39,9.49,6.58,16.73,6.58,5.34,0,9.78-1.3,13.32-3.88,3.54-2.59,5.76-6.18,6.66-10.78h6.03c-1,5.6-3.86,10.02-8.56,13.24-4.7,3.22-10.65,4.84-17.84,4.84-9.14,0-16.21-2.5-21.21-7.49Z"/>
        <path d="M26.43.91c8.49.15,16.98.1,25.46-.14.3,0,.85,3.11.91,3.45.21,1.21.32,2.44.38,3.67.12,2.52.15,5.05.12,7.58-.05,5.22-.39,10.43-1.01,15.61-.22,1.81-.47,3.62-.76,5.42-.5,3.16-1.11,6.31-2.16,9.34-.49,1.42-1.01,2.63-1.98,3.78s-2.18,2.07-3.44,2.87c-5.61,3.56-12.45,4.85-19.09,4.61-5.59-.21-11.25-1.51-15.94-4.55-3-1.95-5.55-4.64-7.19-7.83-.79-1.54-1.49-3.3-1.68-5.03-.08-.67-.15-.61.52-.69.56-.06,1.16,0,1.73,0h3.61c.78,4.56,3.52,8.75,7.38,11.31,3.54,2.34,7.86,3.28,12.1,3.37,5.59.12,11.41-1.29,15.62-4.97,3.88-3.4,6.04-8.41,6.94-13.49s.66-10.28.45-15.43c-.1-2.32-.19-4.66-.78-6.91s-1.73-4.42-3.58-5.83c-1.98-1.51-4.54-2-7.02-2.31-3.49-.43-7.01-.6-10.52-.49-.02-1.11-.04-2.22-.06-3.34ZM51.53,36.5c-.5,3.16-.69,4.82-2.16,9.34-.46,1.42-1.01,2.63-1.98,3.78M51.53,36.5c-.5,3.16-1.68,7.82-2.16,9.34-.45,1.43-1.09,2.52-1.98,3.78"/>
      </g>
    </g>
  </g>
</svg>