<?xml version="1.0" encoding="UTF-8"?>
<svg id="Layer_2" data-name="Layer 2" xmlns="http://www.w3.org/2000/svg" viewBox="0 0 275.14 24.48">
  <g id="Layer_1-2" data-name="Layer 1">
    <g>
      <path d="M15.23,15.98c0,5.33-3.02,8.49-8.06,8.49C1.84,24.48-.75,21.27.19,16.27l2.66-.54c-.54,4.07.61,6.05,4.21,6.05,4.07,0,5.29-2.27,5.29-6.52V.36h2.88v15.62Z"/>
      <path d="M41.53,21.42v2.7h-17.21V.36h16.67v2.7h-13.79v7.67h10.73v2.7h-10.73v7.99h14.33Z"/>
      <path d="M63.55,17.53h-10.76l-2.52,6.59h-3.02L56.5.36h3.42l9.21,23.76h-3.06l-2.52-6.59ZM62.51,14.83l-3.2-8.42-1.12-3.31h-.07l-1.04,3.2-3.24,8.53h8.67Z"/>
      <path d="M94.46,24.12h-3.56l-9.93-15.91-2.52-4.68h-.04l.14,3.82v16.77h-2.74V.36h3.56l9.9,15.84,2.56,4.75h.04l-.14-3.82V.36h2.74v23.76Z"/>
      <path d="M128.41,24.48c-6.77,0-11.01-4.72-11.01-12.24s4.32-12.24,10.94-12.24c4.61,0,7.7,1.94,9.21,5.54l-2.84,1.33c-1.04-2.74-2.99-4.18-6.16-4.18-4.86,0-8.13,3.53-8.13,9.54s3.06,9.54,7.99,9.54c3.17,0,5.65-1.62,6.69-4.82l2.88,1.08c-1.51,4.07-5.11,6.44-9.57,6.44Z"/>
      <path d="M158.82,17.53h-10.76l-2.52,6.59h-3.02L151.77.36h3.42l9.21,23.76h-3.06l-2.52-6.59ZM157.78,14.83l-3.2-8.42-1.12-3.31h-.07l-1.04,3.2-3.24,8.53h8.67Z"/>
      <path d="M179.65,14.25h-5.69v9.86h-2.88V.36h9c4.82,0,8.03,2.66,8.03,6.95,0,3.38-2.02,5.76-5.25,6.62l6.69,10.19h-3.42l-6.48-9.86ZM173.97,11.55h6.08c3.38,0,5.04-1.4,5.04-4.25s-1.66-4.25-5.04-4.25h-6.08v8.49Z"/>
      <path d="M213.44,3.06h-8.28v21.06h-2.88V3.06h-8.28V.36h19.44v2.7Z"/>
      <path d="M223.11,24.12h-2.88V.36h2.88v23.76Z"/>
      <path d="M249.54,21.42v2.7h-17.21V.36h16.67v2.7h-13.79v7.67h10.73v2.7h-10.73v7.99h14.33Z"/>
      <path d="M265.24,14.25h-5.69v9.86h-2.88V.36h9c4.82,0,8.03,2.66,8.03,6.95,0,3.38-2.02,5.76-5.25,6.62l6.69,10.19h-3.42l-6.48-9.86ZM259.55,11.55h6.08c3.38,0,5.04-1.4,5.04-4.25s-1.66-4.25-5.04-4.25h-6.08v8.49Z"/>
    </g>
  </g>
</svg>