<?xml version="1.0" encoding="UTF-8"?>
<svg id="Layer_2" data-name="Layer 2" xmlns="http://www.w3.org/2000/svg" viewBox="0 0 154.07 47.77">
  <defs>
    <style>
      .cls-1 {
        fill: #fff;
        stroke: #231f20;
        stroke-miterlimit: 10;
      }
    </style>
  </defs>
  <g id="Layer_1-2" data-name="Layer 1">
    <g>
      <rect class="cls-1" x=".5" y=".5" width="153.07" height="46.77"/>
      <g>
        <path d="M17.54,25.74c0,2.63-1.49,4.2-3.99,4.2-2.63,0-3.92-1.58-3.45-4.06l1.32-.27c-.27,2.01.3,2.99,2.08,2.99,2.01,0,2.62-1.12,2.62-3.22v-7.37h1.42v7.72Z"/>
        <path d="M30.55,28.42v1.33h-8.51v-11.75h8.24v1.33h-6.82v3.79h5.3v1.33h-5.3v3.95h7.08Z"/>
        <path d="M41.44,26.5h-5.32l-1.25,3.26h-1.49l4.57-11.75h1.69l4.56,11.75h-1.51l-1.25-3.26ZM40.92,25.17l-1.58-4.17-.55-1.64h-.04l-.52,1.58-1.6,4.22h4.29Z"/>
        <path d="M56.72,29.76h-1.76l-4.91-7.87-1.25-2.31h-.02l.07,1.89v8.29h-1.35v-11.75h1.76l4.89,7.83,1.26,2.35h.02l-.07-1.89v-8.29h1.35v11.75Z"/>
        <path d="M73.51,29.94c-3.35,0-5.45-2.33-5.45-6.05s2.14-6.05,5.41-6.05c2.28,0,3.81.96,4.56,2.74l-1.41.66c-.52-1.35-1.48-2.06-3.04-2.06-2.4,0-4.02,1.74-4.02,4.72s1.51,4.72,3.95,4.72c1.57,0,2.79-.8,3.31-2.38l1.42.53c-.75,2.01-2.53,3.19-4.73,3.19Z"/>
        <path d="M88.54,26.5h-5.32l-1.25,3.26h-1.49l4.57-11.75h1.69l4.56,11.75h-1.51l-1.25-3.26ZM88.03,25.17l-1.58-4.17-.55-1.64h-.04l-.52,1.58-1.6,4.22h4.29Z"/>
        <path d="M98.85,24.88h-2.81v4.88h-1.42v-11.75h4.45c2.39,0,3.97,1.32,3.97,3.43,0,1.67-1,2.85-2.6,3.28l3.31,5.04h-1.69l-3.2-4.88ZM96.03,23.55h3.01c1.67,0,2.49-.69,2.49-2.1s-.82-2.1-2.49-2.1h-3.01v4.2Z"/>
        <path d="M115.55,19.35h-4.09v10.41h-1.42v-10.41h-4.09v-1.33h9.61v1.33Z"/>
        <path d="M120.33,29.76h-1.42v-11.75h1.42v11.75Z"/>
        <path d="M133.4,28.42v1.33h-8.51v-11.75h8.24v1.33h-6.82v3.79h5.3v1.33h-5.3v3.95h7.08Z"/>
        <path d="M141.16,24.88h-2.81v4.88h-1.42v-11.75h4.45c2.39,0,3.97,1.32,3.97,3.43,0,1.67-1,2.85-2.6,3.28l3.31,5.04h-1.69l-3.2-4.88ZM138.35,23.55h3.01c1.67,0,2.49-.69,2.49-2.1s-.82-2.1-2.49-2.1h-3.01v4.2Z"/>
      </g>
    </g>
  </g>
</svg>